<?xml version="1.0" standalone="no"?>
<!DOCTYPE svg PUBLIC "-//W3C//DTD SVG 20010904//EN"
 "http://www.w3.org/TR/2001/REC-SVG-20010904/DTD/svg10.dtd">
<svg version="1.0" xmlns="http://www.w3.org/2000/svg"
 width="179.000000pt" height="150.000000pt" viewBox="0 0 179.000000 226.000000"
 preserveAspectRatio="xMidYMid meet">

<g transform="translate(0.000000,226.000000) scale(0.100000,-0.100000)"
fill="#000000" stroke="none">
<path d="M520 1436 c-125 -303 -159 -361 -208 -369 -15 -2 29 -4 98 -4 83 0
110 2 81 7 -82 13 -85 40 -21 194 l38 91 131 3 131 3 45 -98 c40 -84 44 -99
31 -111 -12 -13 -16 -10 -30 17 -16 30 -18 31 -84 30 -53 -1 -61 -3 -39 -9 51
-15 57 -27 57 -106 l0 -73 -72 -103 c-39 -57 -100 -143 -135 -192 -35 -48 -63
-93 -63 -99 0 -19 22 10 145 186 64 92 119 167 122 167 3 0 4 -83 1 -185 -7
-203 -14 -230 -65 -238 -16 -2 17 -4 72 -4 55 0 88 2 74 4 -35 5 -57 30 -60
68 -1 17 -1 113 0 215 1 144 5 189 16 204 8 11 17 17 21 14 3 -4 57 -118 119
-254 62 -137 117 -250 122 -251 4 -2 62 122 127 275 65 152 122 281 126 285 4
5 10 -67 14 -160 3 -92 9 -211 12 -263 2 -52 1 -101 -5 -109 -5 -8 -26 -17
-47 -21 -26 -5 4 -8 86 -8 83 0 110 3 82 8 -51 8 -62 21 -62 74 0 21 -5 149
-11 284 -13 274 -14 268 58 283 30 6 22 7 -36 6 l-74 -2 -118 -270 c-64 -148
-121 -276 -126 -283 -5 -9 -40 56 -103 194 -52 113 -96 210 -98 215 -2 5 34
10 80 10 46 1 74 3 63 6 -38 9 -105 94 -105 132 0 6 54 88 120 182 67 94 118
174 115 177 -6 7 8 26 -130 -171 -75 -106 -121 -163 -126 -155 -3 7 -57 122
-119 256 -63 133 -117 242 -121 242 -3 0 -62 -132 -129 -294z m211 7 l28 -63
-120 0 c-93 0 -120 3 -116 13 3 6 24 57 47 112 23 55 47 111 52 125 11 27 10
29 109 -187z m149 -339 c0 -29 -25 -33 -33 -5 -5 21 11 44 25 35 4 -3 8 -16 8
-30z m-90 -25 c0 -10 -4 -19 -10 -19 -5 0 -10 12 -10 26 0 14 4 23 10 19 6 -3
10 -15 10 -26z"/>
</g>
</svg>
